<svg width="45" height="28" viewBox="0 0 45 28" fill="none" xmlns="http://www.w3.org/2000/svg">
<path d="M39 11.88C39.26 11.24 39.2 11.42 39.3 11.1C39.9 8.68 38.62 6.16 36.3 5.24L32.28 3.64C31.36 3.28 30.38 3.22 29.46 3.4C29.24 2.74 28.88 2.14 28.42 1.62C27.46 0.58 26.12 0 24.72 0H19.3C17.88 0 16.54 0.58 15.6 1.62C15.12 2.14 14.76 2.74 14.54 3.38C13.62 3.2 12.64 3.26 11.72 3.62L7.7 5.22C5.38 6.14 4.1 8.66 4.7 11.08L5 11.84C0.2 21.1 0 21.1 0 22.76C0 24.58 0.92 26.24 2.48 27.2C5.32 28.96 7.46 27.48 10.48 25.98H33.54C36.58 27.5 37.26 28 38.8 28C40.8 28 44.02 26.46 44.02 22.78C44 21.08 43.76 21.02 39 11.88ZM38.24 23.86L34.88 22.18L37.04 16.78L39.86 22.2C40.42 23.26 39.28 24.38 38.24 23.86ZM28.18 21.98L29.42 8.18C29.48 7.52 30.16 7.1 30.78 7.34L34.8 8.94C35.24 9.12 35.48 9.56 35.42 10.02L30.62 21.98H28.18ZM13.36 21.98L8.56 10.02C8.5 9.56 8.74 9.12 9.18 8.94L13.2 7.34C13.82 7.1 14.5 7.5 14.56 8.18L15.8 21.98H13.36ZM4.14 22.2L6.96 16.76L9.12 22.18L5.76 23.86C4.72 24.38 3.58 23.26 4.14 22.2ZM18.3 5.08C18.2889 4.94211 18.3066 4.80342 18.3519 4.67271C18.3971 4.54199 18.469 4.42209 18.563 4.32059C18.657 4.21908 18.771 4.13818 18.8979 4.083C19.0247 4.02782 19.1617 3.99956 19.3 4H24.72C24.8583 3.99956 24.9953 4.02782 25.1221 4.083C25.249 4.13818 25.363 4.21908 25.457 4.32059C25.551 4.42209 25.6229 4.54199 25.6681 4.67271C25.7134 4.80342 25.7311 4.94211 25.72 5.08L24.18 21.98H19.84L18.3 5.08Z" fill="#CAA484"/>
</svg>
