<svg width="48" height="48" viewBox="0 0 48 48" fill="none" xmlns="http://www.w3.org/2000/svg">
<mask id="mask0_26_90" style="mask-type:alpha" maskUnits="userSpaceOnUse" x="6" y="2" width="36" height="44">
<path d="M8 31V42C8 42.5304 8.21071 43.0391 8.58579 43.4142C8.96086 43.7893 9.46957 44 10 44H38C38.5304 44 39.0391 43.7893 39.4142 43.4142C39.7893 43.0391 40 42.5304 40 42V31" stroke="white" stroke-width="4" stroke-linecap="round" stroke-linejoin="round"/>
<path d="M38 14H10C9.46957 14 8.96086 14.2107 8.58579 14.5858C8.21071 14.9609 8 15.4696 8 16V22C8 22.5304 8.21071 23.0391 8.58579 23.4142C8.96086 23.7893 9.46957 24 10 24H38C38.5304 24 39.0391 23.7893 39.4142 23.4142C39.7893 23.0391 40 22.5304 40 22V16C40 15.4696 39.7893 14.9609 39.4142 14.5858C39.0391 14.2107 38.5304 14 38 14Z" fill="white" stroke="white" stroke-width="4" stroke-linejoin="round"/>
<path d="M16 4V8M24 4V8M32 4V8M16 34H32" stroke="white" stroke-width="4" stroke-linecap="round" stroke-linejoin="round"/>
</mask>
<g mask="url(#mask0_26_90)">
<path d="M0 0H48V48H0V0Z" fill="#CAA484"/>
</g>
</svg>
