<svg width="28" height="28" viewBox="0 0 28 28" fill="none" xmlns="http://www.w3.org/2000/svg">
<path fill-rule="evenodd" clip-rule="evenodd" d="M8.20255 0.084C9.69081 0.0152727 10.1653 0 13.9564 0C17.7474 0 18.222 0.0165454 19.709 0.084C21.1959 0.151455 22.211 0.389455 23.0991 0.734364C24.0291 1.08691 24.8728 1.638 25.5706 2.35073C26.2811 3.04945 26.8293 3.89455 27.1794 4.82873C27.5245 5.71964 27.7605 6.73782 27.829 8.22691C27.8975 9.72236 27.9128 10.1984 27.9128 14C27.9128 17.8029 27.8963 18.2789 27.829 19.7718C27.7618 21.2609 27.5245 22.2791 27.1794 23.17C26.8292 24.1043 26.2802 24.9508 25.5706 25.6505C24.8728 26.3633 24.0291 26.9131 23.0991 27.2644C22.211 27.6105 21.1959 27.8473 19.7115 27.916C18.222 27.9847 17.7474 28 13.9564 28C10.1653 28 9.69081 27.9835 8.20255 27.916C6.7181 27.8485 5.70309 27.6105 4.81495 27.2644C3.88358 26.913 3.03973 26.3623 2.34214 25.6505C1.63211 24.9514 1.08265 24.1053 0.732076 23.1713C0.388241 22.2804 0.152251 21.2622 0.0837383 19.7731C0.0152251 18.2776 0 17.8016 0 14C0 10.1971 0.0164939 9.72109 0.0837383 8.22945C0.150983 6.73782 0.388241 5.71964 0.732076 4.82873C1.08317 3.89465 1.63305 3.04858 2.3434 2.34945C3.04001 1.63737 3.88301 1.0862 4.81368 0.734364C5.70182 0.389455 6.71683 0.152727 8.20128 0.084H8.20255ZM19.596 2.604C18.1243 2.53655 17.6827 2.52255 13.9564 2.52255C10.23 2.52255 9.7885 2.53655 8.31674 2.604C6.95536 2.66636 6.21694 2.89418 5.72466 3.08636C5.07378 3.34091 4.60815 3.64255 4.11967 4.13255C3.65663 4.58443 3.30028 5.13454 3.07675 5.74255C2.88517 6.23636 2.65806 6.97709 2.59589 8.34273C2.52864 9.81909 2.51469 10.262 2.51469 14C2.51469 17.738 2.52864 18.1809 2.59589 19.6573C2.65806 21.0229 2.88517 21.7636 3.07675 22.2575C3.30005 22.8645 3.65657 23.4156 4.11967 23.8675C4.57008 24.332 5.11946 24.6896 5.72466 24.9136C6.21694 25.1058 6.95536 25.3336 8.31674 25.396C9.7885 25.4635 10.2288 25.4775 13.9564 25.4775C17.684 25.4775 18.1243 25.4635 19.596 25.396C20.9574 25.3336 21.6958 25.1058 22.1881 24.9136C22.839 24.6591 23.3046 24.3575 23.7931 23.8675C24.2562 23.4156 24.6127 22.8645 24.836 22.2575C25.0276 21.7636 25.2547 21.0229 25.3169 19.6573C25.3841 18.1809 25.3981 17.738 25.3981 14C25.3981 10.262 25.3841 9.81909 25.3169 8.34273C25.2547 6.97709 25.0276 6.23636 24.836 5.74255C24.5823 5.08964 24.2816 4.62255 23.7931 4.13255C23.3426 3.66809 22.7942 3.31063 22.1881 3.08636C21.6958 2.89418 20.9574 2.66636 19.596 2.604ZM12.1738 18.3158C13.1693 18.7315 14.2779 18.7876 15.3101 18.4746C16.3423 18.1615 17.2341 17.4986 17.8332 16.5992C18.4324 15.6998 18.7016 14.6197 18.595 13.5432C18.4885 12.4668 18.0126 11.4609 17.2488 10.6973C16.7619 10.2092 16.1732 9.8354 15.525 9.60291C14.8768 9.37043 14.1853 9.285 13.5003 9.35278C12.8152 9.42056 12.1537 9.63986 11.5633 9.99489C10.9728 10.3499 10.4682 10.8319 10.0858 11.406C9.70332 11.9801 9.45252 12.6322 9.35143 13.3152C9.25035 13.9983 9.30149 14.6953 9.50118 15.3561C9.70087 16.0169 10.0441 16.6251 10.5063 17.1369C10.9684 17.6487 11.5379 18.0513 12.1738 18.3158ZM8.88387 8.91164C9.55001 8.24342 10.3408 7.71337 11.2112 7.35173C12.0815 6.9901 13.0143 6.80397 13.9564 6.80397C14.8984 6.80397 15.8313 6.9901 16.7016 7.35173C17.572 7.71337 18.3628 8.24342 19.0289 8.91164C19.695 9.57985 20.2234 10.3731 20.5839 11.2462C20.9445 12.1193 21.13 13.055 21.13 14C21.13 14.945 20.9445 15.8807 20.5839 16.7538C20.2234 17.6269 19.695 18.4202 19.0289 19.0884C17.6836 20.4379 15.8589 21.196 13.9564 21.196C12.0538 21.196 10.2292 20.4379 8.88387 19.0884C7.53856 17.7388 6.78277 15.9085 6.78277 14C6.78277 12.0915 7.53856 10.2612 8.88387 8.91164ZM22.721 7.87564C22.8861 7.71943 23.0182 7.53159 23.1096 7.32324C23.201 7.11489 23.2498 6.89025 23.2531 6.66264C23.2564 6.43503 23.2142 6.20906 23.1289 5.99812C23.0436 5.78718 22.9169 5.59556 22.7565 5.4346C22.596 5.27363 22.405 5.1466 22.1947 5.06102C21.9844 4.97544 21.7592 4.93306 21.5323 4.93638C21.3054 4.9397 21.0814 4.98865 20.8737 5.08034C20.666 5.17203 20.4788 5.30459 20.323 5.47018C20.0202 5.79222 19.8544 6.21997 19.8608 6.66264C19.8673 7.1053 20.0454 7.52803 20.3575 7.84107C20.6696 8.15412 21.091 8.33284 21.5323 8.33929C21.9735 8.34574 22.4 8.17942 22.721 7.87564Z" fill="black"/>
</svg>
