<svg width="28" height="17" viewBox="0 0 28 17" fill="none" xmlns="http://www.w3.org/2000/svg">
<path fill-rule="evenodd" clip-rule="evenodd" d="M27.2725 1.10598C27.4656 0.46899 27.2725 0 26.3479 0H23.295C22.5182 0 22.16 0.404825 21.9657 0.851649C21.9657 0.851649 20.4131 4.58024 18.2139 7.00219C17.5021 7.7045 17.1788 7.92733 16.7903 7.92733C16.5961 7.92733 16.3042 7.7045 16.3042 7.06635V1.10598C16.3042 0.340659 16.0902 0 15.4436 0H10.6427C10.1577 0 9.8658 0.354659 9.8658 0.691819C9.8658 1.4163 10.966 1.5843 11.0788 3.62359V8.0545C11.0788 9.02631 10.9009 9.20247 10.5124 9.20247C9.47735 9.20247 6.95944 5.45639 5.46497 1.17014C5.17538 0.335993 4.88231 0 4.10193 0H1.04671C0.174451 0 0 0.404825 0 0.851649C0 1.6473 1.03508 5.59988 4.82067 10.8276C7.34439 14.3975 10.8974 16.333 14.134 16.333C16.0751 16.333 16.3147 15.9037 16.3147 15.1628V12.4644C16.3147 11.6046 16.4984 11.4331 17.1137 11.4331C17.5672 11.4331 18.343 11.6571 20.1549 13.3779C22.2251 15.4183 22.5658 16.333 23.7312 16.333H26.7841C27.6563 16.333 28.0936 15.9037 27.8424 15.0543C27.5656 14.2097 26.5771 12.9836 25.2663 11.5288C24.5546 10.7004 23.4869 9.80796 23.1625 9.36114C22.7101 8.78832 22.8391 8.53282 23.1625 8.023C23.1625 8.023 26.8841 2.85944 27.2714 1.10598H27.2725Z" fill="black"/>
</svg>
